<svg xmlns="http://www.w3.org/2000/svg" width="15" height="10" viewBox="0 0 15 10"><defs><style>.a{fill:#aaa8ad;}</style></defs><g transform="translate(5.202 3.89)"><g transform="translate(0 0)"><rect class="a" width="1.507" height="1.507"/></g></g><g transform="translate(7.521 3.89)"><g transform="translate(0 0)"><rect class="a" width="1.507" height="1.507"/></g></g><g transform="translate(5.202 1.4)"><g transform="translate(0 0)"><rect class="a" width="1.507" height="1.507"/></g></g><g transform="translate(7.521 1.4)"><g transform="translate(0 0)"><rect class="a" width="1.507" height="1.507"/></g></g><g transform="translate(9.841 3.892)"><g transform="translate(0 0)"><rect class="a" width="1.507" height="0.753"/></g></g><g transform="translate(0.422 0)"><path class="a" d="M15.993,98.608v-.592h.759v-1h-.759v-.759h-1v.759h-.759v1h.759v.592H13.428v3.062h4.131V98.608Z" transform="translate(-13.428 -96.259)"/></g><g transform="translate(0 5.624)"><g transform="translate(0 0)"><path class="a" d="M14.023,276.364H9.895l-.223.754H0l1.073,3.622H13.7l1.3-4.376Zm-2.129,1.922h-.962v-1h.962Zm1.513,0h-.962v-1h.962Z" transform="translate(0 -276.364)"/></g></g></svg>